HIERARCHY
ROOT Hips
{
	OFFSET 0.000000 0.000000 0.000000
	CHANNELS 6 Xposition Yposition Zposition Xrotation Yrotation Zrotation
	JOINT LeftUpLeg_virtual
	{
		OFFSET 0.000000 0.000000 0.000000
		CHANNELS 3 Xrotation Yrotation Zrotation
		JOINT LeftUpLeg
		{
			OFFSET 13.026900 -6.336304 -1.092800
			CHANNELS 3 Xrotation Yrotation Zrotation
			JOINT LeftLeg
			{
				OFFSET 0.524474 -46.096886 9.782700
				CHANNELS 3 Xrotation Yrotation Zrotation
				JOINT LeftFoot
				{
					OFFSET -0.524474 -53.427422 -12.948200
					CHANNELS 3 Xrotation Yrotation Zrotation
					JOINT LeftToeBase
					{
						OFFSET 0.192200 -14.009700 16.364100
						CHANNELS 3 Xrotation Yrotation Zrotation
						JOINT LeftToe_End
						{
							OFFSET -1.784700 -0.561700 9.474800
							CHANNELS 3 Xrotation Yrotation Zrotation
							End Site
							{
								OFFSET 0 0 0
							}
						}
					}
				}
			}
		}
	}
	JOINT RightUpLeg_virtual
	{
		OFFSET 0.000000 0.000000 0.000000
		CHANNELS 3 Xrotation Yrotation Zrotation
		JOINT RightUpLeg
		{
			OFFSET -12.883000 -6.336304 -1.092800
			CHANNELS 3 Xrotation Yrotation Zrotation
			JOINT RightLeg
			{
				OFFSET -0.524587 -46.096825 9.782800
				CHANNELS 3 Xrotation Yrotation Zrotation
				JOINT RightFoot
				{
					OFFSET 0.524587 -53.427383 -12.948300
					CHANNELS 3 Xrotation Yrotation Zrotation
					JOINT RightToeBase
					{
						OFFSET -0.192200 -14.009700 16.364100
						CHANNELS 3 Xrotation Yrotation Zrotation
						JOINT RightToe_End
						{
							OFFSET 1.784700 -0.561700 9.474800
							CHANNELS 3 Xrotation Yrotation Zrotation
							End Site
							{
								OFFSET 0 0 0
							}
						}
					}
				}
			}
		}
	}
	JOINT Spine_virtual
	{
		OFFSET 0.000000 0.000000 0.000000
		CHANNELS 3 Xrotation Yrotation Zrotation
		JOINT Spine
		{
			OFFSET 0.072000 7.257294 -0.789700
			CHANNELS 3 Xrotation Yrotation Zrotation
			JOINT Spine1
			{
				OFFSET 0.000000 12.508769 -0.658067
				CHANNELS 3 Xrotation Yrotation Zrotation
				JOINT Spine1_split
				{
					OFFSET 0.000000 12.508769 -0.658067
					CHANNELS 3 Xrotation Yrotation Zrotation
					JOINT Spine2
					{
						OFFSET 0.000000 12.508769 -0.658067
						CHANNELS 3 Xrotation Yrotation Zrotation
						JOINT Neck_virtual
						{
							OFFSET 0.000000 0.000000 0.000000
							CHANNELS 3 Xrotation Yrotation Zrotation
							JOINT Neck
							{
								OFFSET 0.000000 14.033295 7.520400
								CHANNELS 3 Xrotation Yrotation Zrotation
								JOINT Head
								{
									OFFSET 0.000000 8.198502 5.703100
									CHANNELS 3 Xrotation Yrotation Zrotation
									JOINT HeadTop_End
									{
										OFFSET 0.000000 17.760803 13.332701
										CHANNELS 3 Xrotation Yrotation Zrotation
										End Site
										{
											OFFSET 0 0 0
										}
									}
								}
							}
						}
						JOINT LeftShoulder_virtual
						{
							OFFSET 0.000000 0.000000 0.000000
							CHANNELS 3 Xrotation Yrotation Zrotation
							JOINT LeftShoulder
							{
								OFFSET 6.292450 5.785301 -0.669000
								CHANNELS 3 Xrotation Yrotation Zrotation
								JOINT LeftShoulder_split
								{
									OFFSET 6.292450 5.785301 -0.669000
									CHANNELS 3 Xrotation Yrotation Zrotation
									JOINT LeftArm
									{
										OFFSET 13.907140 -6.093903 1.965100
										CHANNELS 3 Xrotation Yrotation Zrotation
										JOINT LeftForeArm
										{
											OFFSET 34.140198 0.000000 0.000000
											CHANNELS 3 Xrotation Yrotation Zrotation
											JOINT LeftHand
											{
												OFFSET 40.960209 0.000000 0.000000
												CHANNELS 3 Xrotation Yrotation Zrotation
												End Site
												{
													OFFSET 0 0 0
												}
											}
										}
									}
								}
							}
						}
						JOINT RightShoulder_virtual
						{
							OFFSET 0.000000 0.000000 0.000000
							CHANNELS 3 Xrotation Yrotation Zrotation
							JOINT RightShoulder
							{
								OFFSET -6.292450 5.785301 -0.669000
								CHANNELS 3 Xrotation Yrotation Zrotation
								JOINT RightShoulder_split
								{
									OFFSET -6.292450 5.785301 -0.669000
									CHANNELS 3 Xrotation Yrotation Zrotation
									JOINT RightArm
									{
										OFFSET -13.907140 -6.093903 1.965100
										CHANNELS 3 Xrotation Yrotation Zrotation
										JOINT RightForeArm
										{
											OFFSET -34.140198 0.000000 0.000000
											CHANNELS 3 Xrotation Yrotation Zrotation
											JOINT RightHand
											{
												OFFSET -40.960209 0.000000 0.000000
												CHANNELS 3 Xrotation Yrotation Zrotation
												End Site
												{
													OFFSET 0 0 0
												}
											}
										}
									}
								}
							}
						}
					}
				}
			}
		}
	}
}
MOTION
Frames: 8
Frame Time: 0.03333333
-0.110110 96.893951 -0.641663 0.000000 0.000000 0.000000 -15.818327 4.689734 0.660087 -19.154834 -1.306281 14.179665 52.086992 1.721153 -0.408573 -18.569404 -0.556516 -13.506879 -1.679711 -0.182855 0.040272 0.000000 0.000000 0.000000 -16.155738 2.726499 0.430752 -16.298310 -4.357443 -17.722017 52.421835 1.183395 1.127766 -20.074850 -4.635301 11.728777 -1.039472 0.353831 0.232826 0.000000 0.000000 0.000000 -14.883797 1.571664 -0.093053 18.814741 0.082305 2.479295 5.750119 -0.045997 -0.190915 2.307156 5.584549 -0.396681 0.000000 0.000000 0.000000 6.140054 -0.141753 0.347136 -10.932701 -1.374963 2.682893 -17.349242 1.799522 -0.682143 0.000000 0.000000 0.000000 7.922915 -0.190314 0.721477 3.616466 -8.004722 -4.765734 -4.852974 -1.317811 -4.229043 -10.777236 -17.430146 -58.459835 70.587840 -61.666957 71.000240 0.000000 0.000000 0.000000 7.455369 -0.107273 -0.139459 10.030302 -5.488266 16.234323 3.330673 2.789246 -0.825215 -27.609151 12.054524 60.327803 90.521631 61.359155 -85.098044 0.000000 0.000000 0.000000 
-0.218818 96.875183 -0.432983 0.000000 0.000000 0.000000 -15.916518 4.781821 0.618505 -19.056841 -1.579028 14.265489 52.059050 1.586973 -0.402385 -18.668495 -0.585806 -13.500157 -1.591815 -0.176739 0.063419 0.000000 0.000000 0.000000 -16.266746 3.132510 0.449025 -16.060882 -4.349056 -17.683513 52.677544 1.209205 1.137078 -20.286908 -4.633814 11.467614 -0.759830 0.378661 0.219580 0.000000 0.000000 0.000000 -15.047516 1.941216 -0.124239 18.743398 0.006592 2.431018 5.938171 -0.017131 -0.123536 2.174280 5.643511 -0.135488 0.000000 0.000000 0.000000 6.234652 -0.166732 0.393115 -11.196073 -1.141326 2.239739 -17.503243 2.064084 -0.739526 0.000000 0.000000 0.000000 7.969204 -0.133151 0.798281 3.705822 -7.954630 -4.390365 -4.550209 -1.450781 -4.406990 -12.759129 -17.760430 -60.058482 68.163929 -61.248956 68.707421 0.000000 0.000000 0.000000 7.570507 -0.115140 -0.099450 9.858652 -5.786302 16.268510 3.418976 2.074660 0.783521 -27.127691 10.760435 60.687959 88.271097 62.488171 -83.226408 0.000000 0.000000 0.000000 
-0.323718 96.919922 -0.197674 0.000000 0.000000 0.000000 -16.210552 4.931390 0.633310 -18.850714 -1.890992 14.191234 52.096718 1.452252 -0.365807 -18.893036 -0.551958 -13.515198 -1.473171 -0.143301 0.036545 0.000000 0.000000 0.000000 -16.508214 3.507058 0.479009 -15.554378 -4.542880 -17.759988 52.831967 1.407871 1.101553 -20.340196 -4.645985 11.530277 -0.842990 0.374403 0.204895 0.000000 0.000000 0.000000 -15.430024 2.529535 -0.136260 18.854430 -0.179245 2.230840 6.299771 0.084373 0.006588 1.944534 4.837966 0.025919 0.000000 0.000000 0.000000 6.525439 -0.078899 0.403405 -11.055183 -0.883791 1.351347 -18.015058 2.212060 -0.745606 0.000000 0.000000 0.000000 8.105840 -0.010519 0.885910 3.528229 -8.657695 -4.089783 -4.326509 -2.209102 -3.623562 -12.995825 -16.968253 -60.120520 61.839638 -61.969698 62.693241 0.000000 0.000000 0.000000 7.897130 -0.006407 0.028356 9.431390 -5.907569 16.345117 1.986757 1.572370 1.210721 -25.057572 11.507932 59.635584 84.526904 65.872708 -80.508751 0.000000 0.000000 0.000000 
-0.389587 97.056778 0.012028 0.000000 0.000000 0.000000 -16.651933 5.088035 0.708498 -18.469511 -2.132492 13.909200 52.117642 1.362615 -0.280891 -19.173990 -0.458626 -13.488781 -1.374157 -0.095158 -0.028830 0.000000 0.000000 0.000000 -16.832286 3.772530 0.531837 -14.762699 -4.916515 -17.915595 52.780587 1.678784 1.055834 -20.371360 -4.708208 11.734696 -1.097516 0.344806 0.209251 0.000000 0.000000 0.000000 -15.944754 3.081522 -0.095044 19.081663 -0.462388 1.937836 6.750713 0.215392 0.129683 1.482755 3.455648 0.637503 0.000000 0.000000 0.000000 6.964460 0.036975 0.378326 -10.335867 -0.608691 0.191650 -18.614233 2.326970 -0.813287 0.000000 0.000000 0.000000 8.294504 0.103716 0.947529 3.153791 -9.915182 -3.673750 -4.147050 -3.487051 -2.430687 -11.301251 -15.531408 -58.075719 53.674191 -63.988750 54.849964 0.000000 0.000000 0.000000 8.325487 0.121834 0.178864 8.866045 -5.824269 16.167555 -0.359030 1.228595 0.887949 -20.803619 13.767450 56.458634 81.552056 71.231537 -78.753399 0.000000 0.000000 0.000000 
-0.396216 97.358788 0.239883 0.000000 0.000000 0.000000 -17.183460 5.180606 0.864281 -17.834589 -2.241727 13.438998 51.924649 1.339848 -0.162140 -19.415485 -0.335377 -13.357976 -1.342317 -0.051875 -0.104863 0.000000 0.000000 0.000000 -17.193239 3.981560 0.646237 -13.750589 -5.434932 -18.061117 52.348673 1.829539 1.050464 -20.421519 -4.877737 11.794068 -1.180061 0.306876 0.239468 0.000000 0.000000 0.000000 -16.569981 3.442019 0.006974 19.302692 -0.848283 1.613598 7.174388 0.285557 0.204306 0.671588 2.154603 1.179727 0.000000 0.000000 0.000000 7.532830 0.061905 0.315932 -8.713862 -0.289525 -0.985359 -19.043840 2.404645 -0.963889 0.000000 0.000000 0.000000 8.508684 0.113701 0.976176 2.693419 -11.397739 -2.947877 -4.151313 -4.197883 -1.786052 -8.109127 -14.102495 -53.703117 44.521239 -67.378033 46.082542 0.000000 0.000000 0.000000 8.788253 0.130124 0.306126 8.233972 -5.594157 15.506623 -2.117227 1.207976 0.184864 -14.175246 16.207059 50.880562 79.307874 77.846767 -77.411417 0.000000 0.000000 0.000000 
-0.349984 97.915871 0.381596 0.000000 0.000000 0.000000 -17.676682 5.197146 1.083756 -16.933779 -2.265598 12.851741 51.397003 1.348190 -0.007065 -19.486868 -0.251760 -13.151195 -1.394934 -0.028007 -0.167632 0.000000 0.000000 0.000000 -17.499793 4.162114 0.832421 -12.644570 -5.989873 -18.126528 51.456610 1.809623 1.105317 -20.450683 -5.133053 11.676455 -1.027546 0.280162 0.287960 0.000000 0.000000 0.000000 -17.198077 3.559338 0.186913 19.393953 -1.303516 1.318944 7.491065 0.198797 0.222420 -0.221480 1.347152 1.112853 0.000000 0.000000 0.000000 8.176611 -0.053125 0.246620 -5.908488 0.013217 -1.922450 -19.108306 2.397975 -1.241383 0.000000 0.000000 0.000000 8.705468 -0.040968 0.980651 2.305228 -12.828400 -1.808546 -3.881106 -4.360378 -1.806780 -4.072842 -12.821570 -46.944020 33.866807 -71.881819 35.846219 0.000000 0.000000 0.000000 9.172224 -0.043201 0.397205 7.565022 -5.114548 14.148795 -3.201101 1.403763 -0.254760 -6.159285 16.955630 43.198488 69.132477 84.548057 -67.565748 0.000000 0.000000 0.000000 
-0.259593 98.675186 0.402271 0.000000 0.000000 0.000000 -18.109466 5.154017 1.328541 -15.902446 -2.256131 12.295437 50.519655 1.332178 0.169720 -19.274656 -0.245020 -12.958675 -1.494319 -0.030502 -0.201917 0.000000 0.000000 0.000000 -17.708836 4.390634 1.084245 -11.534132 -6.478230 -18.130657 50.129562 1.695538 1.174936 -20.349063 -5.374424 11.582216 -0.880473 0.285341 0.313504 0.000000 0.000000 0.000000 -17.800952 3.591267 0.435794 19.314032 -1.809987 1.050260 7.763216 -0.057670 0.179759 -0.729699 1.443025 0.879591 0.000000 0.000000 0.000000 8.796435 -0.344710 0.224867 -1.806715 0.248897 -2.474200 -18.764744 2.335381 -1.561682 0.000000 0.000000 0.000000 8.915804 -0.342923 0.937815 2.165121 -14.032677 -0.180922 -3.367023 -4.736723 -2.208649 0.794954 -11.221455 -38.082563 19.972467 -76.286492 22.197891 0.000000 0.000000 0.000000 9.357545 -0.392304 0.486292 6.864532 -4.247156 12.246598 -3.760088 1.741219 -0.258733 0.646146 15.204134 34.868532 -26.832437 86.999521 28.474413 0.000000 0.000000 0.000000 
-0.111005 99.511307 0.328289 0.000000 0.000000 0.000000 -18.447653 5.138131 1.538209 -14.919426 -2.301774 11.898327 49.424639 1.245629 0.325369 -18.821507 -0.327555 -12.841519 -1.593136 -0.055033 -0.207542 0.000000 0.000000 0.000000 -17.824096 4.629957 1.318298 -10.561528 -6.782874 -18.074222 48.540228 1.568944 1.206514 -20.048280 -5.517014 11.699303 -0.915226 0.327314 0.284806 0.000000 0.000000 0.000000 -18.306515 3.688480 0.641581 19.137055 -2.312824 0.807438 8.059809 -0.434379 0.119169 -0.565237 1.896773 0.566401 0.000000 0.000000 0.000000 9.263696 -0.751388 0.294375 3.452377 0.395018 -2.627353 -18.050052 2.202418 -1.886509 0.000000 0.000000 0.000000 9.144578 -0.742579 0.850331 2.277829 -14.849991 1.674039 -2.951199 -5.183931 -2.363580 5.283247 -8.501103 -28.417062 2.445527 -78.945485 4.611664 0.000000 0.000000 0.000000 9.353810 -0.800513 0.581960 6.148652 -3.161643 10.117916 -3.606438 2.063328 -0.023257 2.990605 11.737253 27.277571 -61.347236 82.187612 63.168267 0.000000 0.000000 0.000000 
